<?xml version="1.0" encoding="UTF-8"?>
<svg version="1.1" xmlns="http://www.w3.org/2000/svg" width="500" height="500">
<path d="M0 0 C0.28792938 5.56663461 0.22557511 9.2172507 -3 14 C-6.91140389 16.88208708 -11.10135402 19 -16 19 C-16 19.66 -16 20.32 -16 21 C-15.29875 21.0825 -14.5975 21.165 -13.875 21.25 C-9.37760803 22.42323269 -6.20027377 24.01308526 -3.73046875 28.1015625 C-0.03385716 36.33076851 0.13976327 44.08870457 -2.4375 52.6875 C-5.08089498 59.19360242 -9.46610171 63.657813 -15.69189453 66.87402344 C-22.87195831 69.82816647 -30.52782689 69.38382445 -38.15039062 69.28125 C-40.52229314 69.2497035 -42.89353212 69.24023202 -45.265625 69.234375 C-46.77084153 69.22521879 -48.27605127 69.21484747 -49.78125 69.203125 C-50.49156372 69.19887512 -51.20187744 69.19462524 -51.93371582 69.19024658 C-56.88272647 69.11727353 -56.88272647 69.11727353 -58 68 C-58.20976874 65.57479897 -58.35734807 63.17662399 -58.45703125 60.74609375 C-58.48729904 60.01181656 -58.51756683 59.27753937 -58.54875183 58.52101135 C-58.6096688 56.96000504 -58.66746074 55.39887419 -58.72241211 53.83764648 C-58.7820146 52.24970035 -58.85088275 50.66207235 -58.92944336 49.07495117 C-59.80098307 31.4543713 -59.80098307 31.4543713 -53.01953125 23.75 C-45.3372949 17.65859844 -36.9440045 13.84763458 -28 10 C-26.99275879 9.56268555 -25.98551758 9.12537109 -24.94775391 8.67480469 C-21.69969256 7.27026407 -18.44539796 5.88156015 -15.1875 4.5 C-14.14319824 4.05414551 -13.09889648 3.60829102 -12.02294922 3.14892578 C-11.03955566 2.73884277 -10.05616211 2.32875977 -9.04296875 1.90625 C-7.72848755 1.35420898 -7.72848755 1.35420898 -6.38745117 0.79101562 C-4 0 -4 0 0 0 Z M-46.71606445 31.12792969 C-49.55626984 35.26915329 -48.69298647 40.50879292 -48.4375 45.3125 C-48.40591797 46.43462891 -48.37433594 47.55675781 -48.34179688 48.71289062 C-48.25943395 51.47793172 -48.14448575 54.23762302 -48 57 C-44.50016197 57.08803772 -41.00061362 57.14073608 -37.5 57.1875 C-36.51773438 57.21263672 -35.53546875 57.23777344 -34.5234375 57.26367188 C-27.23983179 57.33650793 -21.08387598 56.85258528 -15.5 51.6875 C-13.13331961 45.86941071 -12.99996235 40.17933711 -14 34 C-15.93750583 30.82499044 -18.37723744 29.48672779 -21.96166992 28.41162109 C-25.38680061 27.719949 -28.83180592 27.69118433 -32.3125 27.625 C-33.04662109 27.58761719 -33.78074219 27.55023438 -34.53710938 27.51171875 C-39.26301571 27.43623844 -42.97265091 28.10310106 -46.71606445 31.12792969 Z " fill="#9B9FA4" transform="translate(124,188)"/>
<path d="M0 0 C0.28792938 5.56663461 0.22557511 9.2172507 -3 14 C-7.16946929 17.07224053 -11.65089742 18.66957808 -16.65234375 19.89453125 C-30.61247732 23.35321585 -45.08986677 28.02642474 -54 40 C-54.5775 40.763125 -55.155 41.52625 -55.75 42.3125 C-56.1625 42.869375 -56.575 43.42625 -57 44 C-57.49722178 28.72424194 -57.49722178 28.72424194 -53.23828125 24.078125 C-45.80892224 17.56955242 -36.97369074 13.86040535 -28 10 C-26.99275879 9.56268555 -25.98551758 9.12537109 -24.94775391 8.67480469 C-21.69969256 7.27026407 -18.44539796 5.88156015 -15.1875 4.5 C-14.14319824 4.05414551 -13.09889648 3.60829102 -12.02294922 3.14892578 C-11.03955566 2.73884277 -10.05616211 2.32875977 -9.04296875 1.90625 C-7.72848755 1.35420898 -7.72848755 1.35420898 -6.38745117 0.79101562 C-4 0 -4 0 0 0 Z " fill="#1B4B62" transform="translate(124,188)"/>
<path d="M0 0 C1.670625 0.061875 1.670625 0.061875 3.375 0.125 C2.76222388 3.08675123 2.12127478 4.50558783 0.375 7.125 C0.7153125 8.300625 0.7153125 8.300625 1.0625 9.5 C1.375 12.125 1.375 12.125 -0.5625 14.875 C-4.48332534 17.75560637 -6.82737871 17.88105315 -11.625 18.125 C-10.87734375 18.15078125 -10.1296875 18.1765625 -9.359375 18.203125 C-1.35941503 18.66385568 -1.35941503 18.66385568 2.0625 20.8125 C3.80500514 23.88262811 3.95464612 25.64712326 3.375 29.125 C1.5079009 31.42775556 0.01852259 32.80323871 -2.625 34.125 C-5.45090981 34.27571519 -8.23572462 34.35632601 -11.0625 34.375 C-11.83916016 34.395625 -12.61582031 34.41625 -13.41601562 34.4375 C-19.16780707 34.47713336 -19.16780707 34.47713336 -21.35571289 32.79199219 C-23.27532213 30.27091277 -22.88145467 28.20245603 -22.625 25.125 C-22.13 23.64 -22.13 23.64 -21.625 22.125 C-20.80332496 17.74273311 -20.19267095 14.42198715 -21.625 10.125 C-21.0625 7.5625 -21.0625 7.5625 -19.625 5.125 C-16.25573208 3.52058671 -13.04143274 3.02497448 -9.375 2.625 C-4.94683113 2.03457748 -4.43928375 0.15307875 0 0 Z M-11.625 8.125 C-11.955 9.445 -12.285 10.765 -12.625 12.125 C-10.975 12.125 -9.325 12.125 -7.625 12.125 C-7.955 10.805 -8.285 9.485 -8.625 8.125 C-9.615 8.125 -10.605 8.125 -11.625 8.125 Z M-13.625 25.125 C-13.625 26.445 -13.625 27.765 -13.625 29.125 C-10.985 29.125 -8.345 29.125 -5.625 29.125 C-5.955 27.805 -6.285 26.485 -6.625 25.125 C-8.935 25.125 -11.245 25.125 -13.625 25.125 Z " fill="#215067" transform="translate(204.625,195.875)"/>
<path d="M0 0 C4.021875 -0.0928125 4.021875 -0.0928125 8.125 -0.1875 C8.95789551 -0.21481201 9.79079102 -0.24212402 10.64892578 -0.27026367 C15.51782832 -0.32428514 18.77029918 0.33302834 23 3 C26.57467556 6.94446958 27.30268132 10.57156057 27.21484375 15.87109375 C26.77092111 20.26996353 25.3995589 23.81912218 22 26.6875 C17.70152645 28.56808218 13.81707048 28.32110214 9.1875 28.1875 C6.155625 28.125625 3.12375 28.06375 0 28 C0 18.76 0 9.52 0 0 Z M9 7 C9 11.62 9 16.24 9 21 C11.3431213 20.74438677 13.67843403 20.40729228 16 20 C17.59784515 16.8043097 17.6435514 13.45820475 17 10 C14.16346849 7.54678356 12.74876504 7 9 7 Z " fill="#184961" transform="translate(140,193)"/>
<path d="M0 0 C2.97 0 5.94 0 9 0 C9 9.57 9 19.14 9 29 C6.03 29 3.06 29 0 29 C-1.423125 29.20625 -2.84625 29.4125 -4.3125 29.625 C-9.35340502 30.13763441 -9.35340502 30.13763441 -12 28 C-14.00526894 24.79012706 -14.27061611 22.25213253 -14.25 18.5 C-14.25515625 17.5615625 -14.2603125 16.623125 -14.265625 15.65625 C-13.99267681 12.92676809 -13.45403114 11.30567796 -12 9 C-8.77364205 6.69545861 -5.87984253 6.74696679 -2 7 C-1.34 7.33 -0.68 7.66 0 8 C0 5.36 0 2.72 0 0 Z M-5 14 C-5.67673447 17.40320934 -5.67673447 17.40320934 -6 21 C-5.34 21.66 -4.68 22.32 -4 23 C-1.89179203 22.6814823 -1.89179203 22.6814823 0 22 C0 19.69 0 17.38 0 15 C-1.65 14.67 -3.3 14.34 -5 14 Z " fill="#1D4D64" transform="translate(415,192)"/>
<path d="M0 0 C3.0625 1.6875 3.0625 1.6875 4.0625 4.6875 C4.1310495 6.58220816 4.14730372 8.4791834 4.125 10.375 C4.11597656 11.36886719 4.10695313 12.36273438 4.09765625 13.38671875 C4.08605469 14.14597656 4.07445312 14.90523437 4.0625 15.6875 C4.7225 15.6875 5.3825 15.6875 6.0625 15.6875 C6.105221 17.35361905 6.10313832 19.02132885 6.0625 20.6875 C5.0625 21.6875 5.0625 21.6875 2.3125 21.8125 C-0.9375 21.6875 -0.9375 21.6875 -3.25 21.125 C-6.00117543 20.67713423 -7.72173983 20.957192 -10.4375 21.4375 C-14.20000089 21.92196918 -14.69099077 21.85019609 -18.0625 19.625 C-19.9375 16.6875 -19.9375 16.6875 -20.0625 13.5625 C-18.9375 10.6875 -18.9375 10.6875 -16.9375 8.8125 C-12.87647316 7.28961494 -9.22456385 7.43531977 -4.9375 7.6875 C-5.2675 7.0275 -5.5975 6.3675 -5.9375 5.6875 C-7.96213255 5.03536708 -7.96213255 5.03536708 -9.9375 4.6875 C-9.9375 5.3475 -9.9375 6.0075 -9.9375 6.6875 C-12.9075 6.6875 -15.8775 6.6875 -18.9375 6.6875 C-18.8125 4.375 -18.8125 4.375 -17.9375 1.6875 C-12.31571379 -2.28888537 -6.24537924 -2.41880466 0 0 Z M-9.625 13.1875 C-10.058125 13.6825 -10.49125 14.1775 -10.9375 14.6875 C-8.4625 15.1825 -8.4625 15.1825 -5.9375 15.6875 C-5.6075 14.3675 -5.2775 13.0475 -4.9375 11.6875 C-7.94009517 11.35531808 -7.94009517 11.35531808 -9.625 13.1875 Z " fill="#26546A" transform="translate(259.9375,200.3125)"/>
<path d="M0 0 C2.125 1.125 2.125 1.125 4.125 3.125 C4.50966182 6.24163497 4.63208987 9.33656449 4.78125 12.47265625 C4.8946875 13.34792969 5.008125 14.22320312 5.125 15.125 C5.785 15.455 6.445 15.785 7.125 16.125 C7.167721 17.79111905 7.16563832 19.45882885 7.125 21.125 C6.125 22.125 6.125 22.125 3.3125 22.3125 C0.125 22.125 0.125 22.125 -2 21 C-2.61875 20.71125 -3.2375 20.4225 -3.875 20.125 C-4.47828125 20.44082031 -5.0815625 20.75664062 -5.703125 21.08203125 C-8.26990005 22.31463725 -9.69608379 22.26102879 -12.5 21.9375 C-13.66402344 21.82341797 -13.66402344 21.82341797 -14.8515625 21.70703125 C-16.875 21.125 -16.875 21.125 -18.875 18.125 C-18.8125 14.625 -18.8125 14.625 -17.875 11.125 C-14.06472002 7.66110911 -9.81407802 7.54356593 -4.875 7.125 C-4.875 6.465 -4.875 5.805 -4.875 5.125 C-5.865 5.62 -5.865 5.62 -6.875 6.125 C-10.73561033 7.41187011 -13.81650283 7.26257618 -17.875 7.125 C-17.75 4.8125 -17.75 4.8125 -16.875 2.125 C-11.55293062 -1.63939054 -6.16594459 -1.87659183 0 0 Z M-9.875 13.125 C-9.875 14.115 -9.875 15.105 -9.875 16.125 C-8.225 15.795 -6.575 15.465 -4.875 15.125 C-4.545 14.135 -4.215 13.145 -3.875 12.125 C-6.92770463 11.96688612 -6.92770463 11.96688612 -9.875 13.125 Z " fill="#225168" transform="translate(365.875,199.875)"/>
<path d="M0 0 C0.70125 0.06703125 1.4025 0.1340625 2.125 0.203125 C4 0.75 4 0.75 6 3.75 C7.08603232 7.70479695 7.10376492 11.4772725 7.0625 15.5625 C7.05347656 16.72394531 7.04445313 17.88539063 7.03515625 19.08203125 C7.02355469 19.96246094 7.01195312 20.84289062 7 21.75 C4.03 21.75 1.06 21.75 -2 21.75 C-2.33 17.13 -2.66 12.51 -3 7.75 C-4.32 7.42 -5.64 7.09 -7 6.75 C-7 11.7 -7 16.65 -7 21.75 C-9.97 21.75 -12.94 21.75 -16 21.75 C-16 14.82 -16 7.89 -16 0.75 C-12.66666667 0.75 -9.33333333 0.75 -6 0.75 C-3.64710301 -0.4264485 -2.58181049 -0.28475851 0 0 Z " fill="#1F4E66" transform="translate(391,199.25)"/>
<path d="M0 0 C0.33 1.98 0.66 3.96 1 6 C0.01 6.495 0.01 6.495 -1 7 C-0.484375 7.515625 0.03125 8.03125 0.5625 8.5625 C2 11 2 11 2.0625 14.5625 C1 18 1 18 -1.5625 19.9375 C-6.98278426 21.61286059 -11.0066085 21.70137849 -16.375 19.8125 C-19.33885367 17.76602961 -20.07349738 16.42805969 -21 13 C-18.03 13 -15.06 13 -12 13 C-12 13.66 -12 14.32 -12 15 C-10.35 15 -8.7 15 -7 15 C-7 14.34 -7 13.68 -7 13 C-7.60328125 12.97421875 -8.2065625 12.9484375 -8.828125 12.921875 C-12.63803524 12.65149427 -15.33681524 12.41054294 -18.625 10.375 C-20.61223927 6.9424958 -19.97311023 4.75342516 -19 1 C-13.9367759 -4.0632241 -6.10533321 -2.38256906 0 0 Z M-11 4 C-9.02 4.99 -9.02 4.99 -7 6 C-7 5.34 -7 4.68 -7 4 C-8.32 4 -9.64 4 -11 4 Z " fill="#2C596F" transform="translate(330,201)"/>
<path d="M0 0 C0.8723412 2.99480917 1.10829766 5.63575911 1.0625 8.75 C1.05347656 9.54921875 1.04445313 10.3484375 1.03515625 11.171875 C1.01775391 12.07679688 1.01775391 12.07679688 1 13 C1.5775 12.071875 2.155 11.14375 2.75 10.1875 C5 7 5 7 9 4 C9 11.92 9 19.84 9 28 C17.58 27.67 26.16 27.34 35 27 C34.67 27.66 34.34 28.32 34 29 C33.24380371 28.99363525 32.48760742 28.98727051 31.70849609 28.98071289 C28.2630055 28.97199748 24.82017999 29.01673512 21.375 29.0625 C19.59029297 29.04606445 19.59029297 29.04606445 17.76953125 29.02929688 C11.40383453 28.99735153 11.40383453 28.99735153 5.82519531 31.62060547 C4.34381293 33.34888492 3.11393551 35.01848631 2 37 C9.49990675 38.20263656 16.9182785 38.11258251 24.5 38.0625 C25.799375 38.05798828 27.09875 38.05347656 28.4375 38.04882812 C31.62504825 38.0371092 34.81249955 38.02070219 38 38 C34.25117257 40.44215206 30.5235578 40.27355159 26.20703125 40.23046875 C25.46039719 40.23001053 24.71376312 40.22955231 23.94450378 40.2290802 C22.37192183 40.22606682 20.79934262 40.21820793 19.22680664 40.20581055 C16.81060313 40.18748561 14.39478157 40.18530144 11.97851562 40.18554688 C10.4505175 40.18063396 8.92252198 40.17480662 7.39453125 40.16796875 C6.30553276 40.16629951 6.30553276 40.16629951 5.1945343 40.16459656 C0.11607343 40.11607343 0.11607343 40.11607343 -1 39 C-1.18484793 36.53967598 -1.30835158 34.10504496 -1.38671875 31.640625 C-1.41224319 30.89923279 -1.43776764 30.15784058 -1.46406555 29.39398193 C-1.51617736 27.82035631 -1.56559161 26.24663944 -1.61254883 24.67285156 C-1.68677138 22.27355317 -1.77754801 19.87525219 -1.86914062 17.4765625 C-1.91769015 15.94794883 -1.96524774 14.41930327 -2.01171875 12.890625 C-2.04077805 12.17585999 -2.06983734 11.46109497 -2.09977722 10.72467041 C-2.20131509 6.66713885 -1.81568286 3.64644835 0 0 Z " fill="#A7AEB4" transform="translate(67,217)"/>
<path d="M0 0 C2.31 0 4.62 0 7 0 C7 2.31 7 4.62 7 7 C8.65 7 10.3 7 12 7 C12 8.98 12 10.96 12 13 C10.35 13 8.7 13 7 13 C7.33 15.97 7.66 18.94 8 22 C9.32 22.33 10.64 22.66 12 23 C12 24.65 12 26.3 12 28 C8.82459056 29.58770472 5.45809441 29.41100302 2 29 C-0.17476401 27.45661909 -0.81832637 26.36334727 -2 24 C-2.07033769 22.12620395 -2.0843022 20.24998898 -2.0625 18.375 C-2.05347656 17.37210938 -2.04445312 16.36921875 -2.03515625 15.3359375 C-2.01775391 14.17964844 -2.01775391 14.17964844 -2 13 C-2.99 12.67 -3.98 12.34 -5 12 C-5 10.35 -5 8.7 -5 7 C-3.68 7 -2.36 7 -1 7 C-0.67 4.69 -0.34 2.38 0 0 Z " fill="#29566C" transform="translate(227,193)"/>
<path d="M0 0 C0.33 0 0.66 0 1 0 C1.60270452 8.16999461 0.69818435 13.67977082 -4.6953125 19.98046875 C-11.78547249 26.94145578 -20.1084771 27.24014864 -29.69921875 27.17578125 C-31.14748047 27.15064453 -31.14748047 27.15064453 -32.625 27.125 C-34.13126953 27.11146484 -34.13126953 27.11146484 -35.66796875 27.09765625 C-38.11224126 27.07437746 -40.55598408 27.04168487 -43 27 C-40.12293282 25.08195522 -38.41211014 24.48245394 -35.125 23.6875 C-17.04138077 18.97075883 -17.04138077 18.97075883 -3.20703125 7.328125 C-1.99086781 4.91623785 -0.9237891 2.53659216 0 0 Z " fill="#1A4860" transform="translate(121,229)"/>
<path d="M0 0 C2.97 0 5.94 0 9 0 C9 9.57 9 19.14 9 29 C6.03 29 3.06 29 0 29 C0 19.43 0 9.86 0 0 Z " fill="#225168" transform="translate(335,192)"/>
<path d="M0 0 C2.97 0 5.94 0 9 0 C9 9.57 9 19.14 9 29 C6.03 29 3.06 29 0 29 C0 19.43 0 9.86 0 0 Z " fill="#225168" transform="translate(268,192)"/>
<path d="M0 0 C2.97 0 5.94 0 9 0 C9 9.24 9 18.48 9 28 C6.03 28 3.06 28 0 28 C0 18.76 0 9.52 0 0 Z " fill="#0E415A" transform="translate(296,193)"/>
<path d="M0 0 C2 1 2 1 3 3 C-21.27119615 13.37316682 -21.27119615 13.37316682 -34 11 C-33.02180976 9.68677212 -32.0424189 8.37443848 -31.0625 7.0625 C-30.51722656 6.33160156 -29.97195312 5.60070312 -29.41015625 4.84765625 C-28 3 -28 3 -27 2 C-25.08659731 1.854088 -23.16820039 1.7726707 -21.25 1.71875 C-20.0846875 1.68136719 -18.919375 1.64398438 -17.71875 1.60546875 C-15.23958333 1.53515625 -12.76041667 1.46484375 -10.28125 1.39453125 C-9.1159375 1.35714844 -7.950625 1.31976563 -6.75 1.28125 C-5.13351563 1.23581055 -5.13351563 1.23581055 -3.484375 1.18945312 C-1.05861658 1.27571437 -1.05861658 1.27571437 0 0 Z " fill="#8D9196" transform="translate(102,244)"/>
<path d="M0 0 C2.97 0 5.94 0 9 0 C9 6.93 9 13.86 9 21 C6.03 21 3.06 21 0 21 C0 14.07 0 7.14 0 0 Z " fill="#225168" transform="translate(211,200)"/>
<path d="M0 0 C2.97 0 5.94 0 9 0 C9 6.93 9 13.86 9 21 C6.03 21 3.06 21 0 21 C0 14.07 0 7.14 0 0 Z " fill="#225168" transform="translate(171,200)"/>
<path d="M0 0 C0.99 0 1.98 0 3 0 C3 5.28 3 10.56 3 16 C-4 17 -4 17 -7 16 C-8.91844457 13.41009984 -9.01001406 12.12517573 -8.75 8.875 C-8 6 -8 6 -6 4 C-3.375 3.875 -3.375 3.875 -1 4 C-0.67 2.68 -0.34 1.36 0 0 Z M-5 6 C-5.33 8.31 -5.66 10.62 -6 13 C-4.34385343 13.38218767 -2.67542976 13.71395102 -1 14 C0.27003323 12.94689723 0.27003323 12.94689723 0.1875 10.5625 C0.26839983 7.83265325 0.26839983 7.83265325 -2 6 C-2.99 6 -3.98 6 -5 6 Z " fill="#BDBFC2" transform="translate(314,237)"/>
<path d="M0 0 C2.47923801 -0.02685095 4.9581884 -0.04676547 7.4375 -0.0625 C8.14455078 -0.07087891 8.85160156 -0.07925781 9.58007812 -0.08789062 C11.38693559 -0.09653588 13.19387603 -0.05220011 15 0 C16 1 16 1 16.09765625 3.50390625 C16.08605469 4.51324219 16.07445312 5.52257812 16.0625 6.5625 C16.05347656 7.57441406 16.04445313 8.58632812 16.03515625 9.62890625 C16.02355469 10.41136719 16.01195312 11.19382813 16 12 C15.34 12 14.68 12 14 12 C13.67 9.03 13.34 6.06 13 3 C12.01 3.33 11.02 3.66 10 4 C9.67 6.64 9.34 9.28 9 12 C8.34 12 7.68 12 7 12 C6.67 9.03 6.34 6.06 6 3 C5.01 3.33 4.02 3.66 3 4 C2.67 6.64 2.34 9.28 2 12 C1.34 12 0.68 12 0 12 C0 8.04 0 4.08 0 0 Z " fill="#B1B4B8" transform="translate(260,241)"/>
<path d="M0 0 C1.36125 0.37125 1.36125 0.37125 2.75 0.75 C2.75 1.74 2.75 2.73 2.75 3.75 C0.44 3.42 -1.87 3.09 -4.25 2.75 C-4.25 3.74 -4.25 4.73 -4.25 5.75 C-2.5484375 6.2140625 -2.5484375 6.2140625 -0.8125 6.6875 C2.75 7.75 2.75 7.75 3.75 8.75 C4 11.6875 4 11.6875 3.75 14.75 C0.75 16.75 0.75 16.75 -2.3125 16.5625 C-5.25 15.75 -5.25 15.75 -7.25 12.75 C-4.58333333 12.75 -1.91666667 12.75 0.75 12.75 C0.42 11.76 0.09 10.77 -0.25 9.75 C-1.24 9.440625 -2.23 9.13125 -3.25 8.8125 C-6.25 7.75 -6.25 7.75 -7.375 5.875 C-7.25 3.75 -7.25 3.75 -5.6875 1.4375 C-3.25 -0.25 -3.25 -0.25 0 0 Z " fill="#B9BCBF" transform="translate(146.25,237.25)"/>
<path d="M0 0 C2.31 0.33 4.62 0.66 7 1 C7.33 2.98 7.66 4.96 8 7 C5.36 7 2.72 7 0 7 C0.33 7.66 0.66 8.32 1 9 C2.98 9 4.96 9 7 9 C6.67 9.99 6.34 10.98 6 12 C3.64101492 13.05747607 2.33159402 13.07579292 -0.1875 12.5 C-2 11 -2 11 -2.9375 7.625 C-3 4 -3 4 -1.5625 1.5625 C-1.046875 1.046875 -0.53125 0.53125 0 0 Z M1 2 C0.67 2.99 0.34 3.98 0 5 C1.65 5 3.3 5 5 5 C4.67 4.01 4.34 3.02 4 2 C3.01 2 2.02 2 1 2 Z " fill="#B7BABE" transform="translate(296,241)"/>
<path d="M0 0 C1.875 1.5625 1.875 1.5625 3 4 C2.6875 7.75 2.6875 7.75 2 11 C-0.75 12.1875 -0.75 12.1875 -4 13 C-6.3125 11.9375 -6.3125 11.9375 -8 10 C-9.03839699 7.10732266 -9.23529002 5.65157235 -8.1875 2.75 C-6.04367364 -0.40932306 -3.60887856 -0.44010714 0 0 Z M-4 2 C-6.28728734 3.83883881 -6.28728734 3.83883881 -6.125 6.625 C-6.08375 7.40875 -6.0425 8.1925 -6 9 C-4.34385343 9.38218767 -2.67542976 9.71395102 -1 10 C0.35618499 8.87465895 0.35618499 8.87465895 0.0625 5.9375 C0.041875 4.968125 0.02125 3.99875 0 3 C-1.89179203 2.3185177 -1.89179203 2.3185177 -4 2 Z " fill="#BBBEC1" transform="translate(161,241)"/>
<path d="M0 0 C2.31 0.33 4.62 0.66 7 1 C8.1875 3.6875 8.1875 3.6875 9 7 C7.80394075 9.99014813 6.99007943 11.52092931 4.0625 12.9375 C1.29685128 13.02130754 0.15350355 12.78220984 -2 11 C-2.9375 7.625 -2.9375 7.625 -3 4 C-1.5625 1.5625 -1.5625 1.5625 0 0 Z M1 2 C-0.35618499 3.12534105 -0.35618499 3.12534105 -0.0625 6.0625 C-0.041875 7.031875 -0.02125 8.00125 0 9 C1.65614657 9.38218767 3.32457024 9.71395102 5 10 C6.27003323 8.94689723 6.27003323 8.94689723 6.1875 6.5625 C6.26839983 3.83265325 6.26839983 3.83265325 4 2 C3.01 2 2.02 2 1 2 Z " fill="#B8BBBE" transform="translate(202,241)"/>
<path d="M0 0 C0.99 0 1.98 0 3 0 C3 3.3 3 6.6 3 10 C4.32 10 5.64 10 7 10 C7.33 6.7 7.66 3.4 8 0 C8.66 0 9.32 0 10 0 C10 3.96 10 7.92 10 12 C4.375 13.125 4.375 13.125 1 12 C-0.26237731 9.47524538 -0.09856404 7.68799534 -0.0625 4.875 C-0.05347656 3.96492187 -0.04445312 3.05484375 -0.03515625 2.1171875 C-0.02355469 1.41851562 -0.01195312 0.71984375 0 0 Z " fill="#BBBEC1" transform="translate(172,241)"/>
<path d="M0 0 C6.0546875 -0.1953125 6.0546875 -0.1953125 8 0 C10 2 10 2 10.1953125 4.3828125 C10.17210937 5.28773438 10.14890625 6.19265625 10.125 7.125 C10.10695312 8.03507813 10.08890625 8.94515625 10.0703125 9.8828125 C10.04710937 10.58148438 10.02390625 11.28015625 10 12 C9.34 12 8.68 12 8 12 C7.67 9.03 7.34 6.06 7 3 C6.01 3 5.02 3 4 3 C3.67 5.97 3.34 8.94 3 12 C2.01 12 1.02 12 0 12 C0 8.04 0 4.08 0 0 Z " fill="#B7B9BD" transform="translate(213,241)"/>
<path d="M0 0 C0.33 0.99 0.66 1.98 1 3 C-1.97 2.505 -1.97 2.505 -5 2 C-4.15433261 4.27173092 -4.15433261 4.27173092 -1.5 4.875 C1 6 1 6 1.8125 8.125 C1.874375 8.74375 1.93625 9.3625 2 10 C0.3125 11.5625 0.3125 11.5625 -2 13 C-4.75 12.6875 -4.75 12.6875 -7 12 C-7 11.01 -7 10.02 -7 9 C-4.03 9.495 -4.03 9.495 -1 10 C-2.39195915 7.2160817 -4.15575779 7.02101003 -7 6 C-7 4.35 -7 2.7 -7 1 C-4.53721199 -0.231394 -2.7204945 -0.07159196 0 0 Z " fill="#B7BABE" transform="translate(233,241)"/>
<path d="M0 0 C0.66 0 1.32 0 2 0 C2 4.62 2 9.24 2 14 C4.31 14 6.62 14 9 14 C9 14.66 9 15.32 9 16 C5.7 16 2.4 16 -1 16 C-1.02685095 13.52076199 -1.04676547 11.0418116 -1.0625 8.5625 C-1.07506836 7.50192383 -1.07506836 7.50192383 -1.08789062 6.41992188 C-1.09653588 4.61306441 -1.05220011 2.80612397 -1 1 C-0.67 0.67 -0.34 0.34 0 0 Z " fill="#BEC0C3" transform="translate(243,237)"/>
<path d="M0 0 C2.97 0 5.94 0 9 0 C9 1.98 9 3.96 9 6 C6.03 6 3.06 6 0 6 C0 4.02 0 2.04 0 0 Z " fill="#355F74" transform="translate(211,192)"/>
<path d="M0 0 C2.97 0 5.94 0 9 0 C9 1.98 9 3.96 9 6 C6.03 6 3.06 6 0 6 C0 4.02 0 2.04 0 0 Z " fill="#355F74" transform="translate(171,192)"/>
<path d="M0 0 C0.33 0.99 0.66 1.98 1 3 C2.32 3 3.64 3 5 3 C5 3.66 5 4.32 5 5 C3.68 5 2.36 5 1 5 C1.33 7.31 1.66 9.62 2 12 C2.99 12.33 3.98 12.66 5 13 C4.67 13.99 4.34 14.98 4 16 C1.525 15.01 1.525 15.01 -1 14 C-1 11.03 -1 8.06 -1 5 C-1.66 5 -2.32 5 -3 5 C-3 4.34 -3 3.68 -3 3 C-2.34 3 -1.68 3 -1 3 C-0.67 2.01 -0.34 1.02 0 0 Z " fill="#B7BABD" transform="translate(187,238)"/>
<path d="M0 0 C0.99 0 1.98 0 3 0 C3.16798051 2.27073652 3.33434113 4.54159293 3.5 6.8125 C3.5928125 8.07707031 3.685625 9.34164062 3.78125 10.64453125 C3.91914781 12.75978517 4 14.88025592 4 17 C2.68 16.34 1.36 15.68 0 15 C0 10.05 0 5.1 0 0 Z " fill="#C3C5C8" transform="translate(166,237)"/>
<path d="M0 0 C0.33 0.99 0.66 1.98 1 3 C2.32 3 3.64 3 5 3 C5 3.66 5 4.32 5 5 C3.68 5 2.36 5 1 5 C1 7.64 1 10.28 1 13 C2.32 13 3.64 13 5 13 C5 13.66 5 14.32 5 15 C2 16 2 16 -1 15 C-1 11.7 -1 8.4 -1 5 C-1.66 5 -2.32 5 -3 5 C-3 4.34 -3 3.68 -3 3 C-2.34 3 -1.68 3 -1 3 C-0.67 2.01 -0.34 1.02 0 0 Z " fill="#ADB0B4" transform="translate(287,238)"/>
<path d="M0 0 C0.66 0 1.32 0 2 0 C2 3.96 2 7.92 2 12 C1.01 12 0.02 12 -1 12 C-1.02687279 10.18757948 -1.04633715 8.37504767 -1.0625 6.5625 C-1.07410156 5.55316406 -1.08570313 4.54382813 -1.09765625 3.50390625 C-1 1 -1 1 0 0 Z " fill="#C5C7CA" transform="translate(255,241)"/>
<path d="M0 0 C0.99 0.33 1.98 0.66 3 1 C3 4.63 3 8.26 3 12 C2.01 12 1.02 12 0 12 C0 8.04 0 4.08 0 0 Z " fill="#C5C7CA" transform="translate(194,241)"/>
<path d="M0 0 C0.66 1.32 1.32 2.64 2 4 C0.3125 5.5625 0.3125 5.5625 -2 7 C-4.75 6.6875 -4.75 6.6875 -7 6 C-7 5.01 -7 4.02 -7 3 C-4.03 3.495 -4.03 3.495 -1 4 C-1.33 3.01 -1.66 2.02 -2 1 C-1.34 0.67 -0.68 0.34 0 0 Z " fill="#C0C2C5" transform="translate(233,247)"/>
<path d="M0 0 C1.32 0.33 2.64 0.66 4 1 C3.01 1 2.02 1 1 1 C1.33 3.31 1.66 5.62 2 8 C2.99 8.33 3.98 8.66 5 9 C4.67 9.99 4.34 10.98 4 12 C2.68 11.67 1.36 11.34 0 11 C0 7.37 0 3.74 0 0 Z " fill="#AEB1B5" transform="translate(187,242)"/>
<path d="M0 0 C0.66 0.33 1.32 0.66 2 1 C0.54782324 2.50596108 -0.91192861 4.00462104 -2.375 5.5 C-3.18710938 6.3353125 -3.99921875 7.170625 -4.8359375 8.03125 C-7 10 -7 10 -9 10 C-7.61811547 6.78956118 -6.07578097 4.95063635 -3.375 2.75 C-2.74335937 2.22921875 -2.11171875 1.7084375 -1.4609375 1.171875 C-0.73777344 0.59179688 -0.73777344 0.59179688 0 0 Z " fill="#698796" transform="translate(77,207)"/>
<path d="M0 0 C0.66 0.66 1.32 1.32 2 2 C5.08347826 2.16681109 5.08347826 2.16681109 8 2 C7.67 2.99 7.34 3.98 7 5 C5.1875 5.8125 5.1875 5.8125 3 6 C0.75 5.0625 0.75 5.0625 -1 4 C-0.67 2.68 -0.34 1.36 0 0 Z " fill="#BEC1C4" transform="translate(295,248)"/>
<path d="M0 0 C0.99 0.99 1.98 1.98 3 3 C2.3125 5.375 2.3125 5.375 1 8 C-1.625 9.3125 -1.625 9.3125 -4 10 C-4.33 9.34 -4.66 8.68 -5 8 C-3.68 8 -2.36 8 -1 8 C-0.67 5.36 -0.34 2.72 0 0 Z " fill="#B0B3B7" transform="translate(208,244)"/>
<path d="M0 0 C5.625 -0.25 5.625 -0.25 9 2 C9 3.32 9 4.64 9 6 C8.34 6 7.68 6 7 6 C6.34 5.01 5.68 4.02 5 3 C2.44816596 1.79549696 2.44816596 1.79549696 0 1 C0 0.67 0 0.34 0 0 Z " fill="#B0B3B7" transform="translate(141,244)"/>
<path d="M0 0 C0.66 0 1.32 0 2 0 C2 3.96 2 7.92 2 12 C1.34 12 0.68 12 0 12 C0 8.04 0 4.08 0 0 Z " fill="#ABAEB2" transform="translate(280,241)"/>
<path d="M0 0 C0.33 0 0.66 0 1 0 C1 2.64 1 5.28 1 8 C2.32 8 3.64 8 5 8 C5 8.66 5 9.32 5 10 C2 11 2 11 -1 10 C-0.67 6.7 -0.34 3.4 0 0 Z " fill="#B8BBBE" transform="translate(287,243)"/>
<path d="M0 0 C0.33 0 0.66 0 1 0 C1.0825 0.78375 1.165 1.5675 1.25 2.375 C1.72806339 5.14749104 1.72806339 5.14749104 4.0625 6.3125 C4.701875 6.539375 5.34125 6.76625 6 7 C4.02 7.33 2.04 7.66 0 8 C-1.09658936 4.71023192 -0.79953138 3.28696233 0 0 Z " fill="#C7C9CC" transform="translate(201,245)"/>
<path d="M0 0 C1.32 0.33 2.64 0.66 4 1 C4.33 2.98 4.66 4.96 5 7 C4.01 7.495 4.01 7.495 3 8 C2.690625 7.05125 2.38125 6.1025 2.0625 5.125 C1.12605258 2.13919592 1.12605258 2.13919592 0 0 Z " fill="#B0B4B7" transform="translate(159,242)"/>
<path d="M0 0 C0.33 0 0.66 0 1 0 C1 3.3 1 6.6 1 10 C0.01 9.34 -0.98 8.68 -2 8 C-1.47731534 5.23723823 -0.89130413 2.6739124 0 0 Z " fill="#345A6D" transform="translate(121,229)"/>
<path d="M0 0 C0.99 0 1.98 0 3 0 C3 0.99 3 1.98 3 3 C2.01 2.67 1.02 2.34 0 2 C0 1.34 0 0.68 0 0 Z " fill="#C6C9CB" transform="translate(279,237)"/>
<path d="M0 0 C0.99 0 1.98 0 3 0 C2.67 0.99 2.34 1.98 2 3 C1.34 2.67 0.68 2.34 0 2 C0 1.34 0 0.68 0 0 Z " fill="#BFC2C5" transform="translate(254,237)"/>
<path d="M0 0 C0.99 0 1.98 0 3 0 C2.67 0.99 2.34 1.98 2 3 C1.34 2.67 0.68 2.34 0 2 C0 1.34 0 0.68 0 0 Z " fill="#BFC2C5" transform="translate(194,237)"/>
</svg>
