<svg width="80" height="80" viewBox="0 0 80 80" fill="none" xmlns="http://www.w3.org/2000/svg">
<path d="M68.125 32.5C67.7934 32.5 67.4755 32.6317 67.2411 32.8662C67.0067 33.1006 66.875 33.4185 66.875 33.75V47.5C66.875 47.8316 67.0067 48.1495 67.2411 48.3839C67.4755 48.6184 67.7934 48.75 68.125 48.75C68.4565 48.75 68.7744 48.6184 69.0089 48.3839C69.2433 48.1495 69.375 47.8316 69.375 47.5V33.75C69.375 33.4185 69.2433 33.1006 69.0089 32.8662C68.7744 32.6317 68.4565 32.5 68.125 32.5ZM32.3112 11.4075L18.1437 19.2788C17.8543 19.4399 17.6407 19.7093 17.5497 20.0278C17.4588 20.3463 17.498 20.6879 17.6587 20.9775C18.1262 21.8475 19.1662 21.5713 19.3587 21.4638L33.5262 13.5925C33.816 13.4314 34.0299 13.1618 34.1208 12.843C34.2118 12.5242 34.1723 12.1823 34.0112 11.8925C33.8501 11.6028 33.5805 11.3889 33.2617 11.298C32.9429 11.207 32.601 11.2464 32.3112 11.4075ZM33.525 66.4075L19.3575 58.5363C19.214 58.4562 19.0562 58.4053 18.8929 58.3864C18.7297 58.3675 18.5644 58.381 18.4065 58.4262C18.2485 58.4714 18.101 58.5473 17.9725 58.6497C17.844 58.752 17.7369 58.8787 17.6575 59.0225C17.5777 59.1659 17.527 59.3236 17.5082 59.4866C17.4894 59.6496 17.5029 59.8147 17.548 59.9724C17.593 60.1302 17.6687 60.2775 17.7707 60.406C17.8727 60.5345 17.9991 60.6416 18.1425 60.7213L32.31 68.5925C32.5025 68.7 33.4812 68.9725 34.01 68.1063C34.37 67.5175 34.1275 66.7425 33.525 66.4075Z" fill="white" fill-opacity="0.2"/>
<path d="M74.3875 20.1744L40.6375 0.174377C40.4444 0.0602223 40.2243 0 40 0C39.7757 0 39.5556 0.0602223 39.3625 0.174377L5.6125 20.1744C5.4259 20.285 5.27131 20.4423 5.16392 20.6308C5.05653 20.8193 5.00004 21.0324 5 21.2494V58.7494C5 59.1919 5.23375 59.6006 5.6125 59.8244L39.3625 79.8244C39.5555 79.9388 39.7757 79.9992 40 79.9992C40.2243 79.9992 40.4445 79.9388 40.6375 79.8244L74.3875 59.8244C74.5741 59.7137 74.7287 59.5565 74.8361 59.368C74.9435 59.1795 75 58.9663 75 58.7494V21.2494C75.0001 21.0324 74.9436 20.8192 74.8362 20.6307C74.7288 20.4422 74.5742 20.2849 74.3875 20.1744ZM60.5988 50.1519L59.4012 52.3469L71.2225 58.7944L41.25 76.5556V62.4994H38.75V76.5556L8.7775 58.7944L20.5988 52.3469L19.4012 50.1519L7.5 56.6431V23.3556L19.4012 29.8469L20.5988 27.6519L8.7775 21.2044L38.75 3.44313V16.2494H41.25V3.44313L71.2225 21.2044L59.4012 27.6519L60.5988 29.8469L72.5 23.3556V56.6444L60.5988 50.1519Z" fill="white" fill-opacity="0.2"/>
<path d="M38.125 28.75H41.875V35H38.125V28.75ZM28.75 43.75H32.5V50H28.75V43.75Z" fill="#7C43FF"/>
<path d="M40 14.375L17.5 26.875V51.875L40 64.375L62.5 51.875V26.875L40 14.375ZM48.75 27.5C48.75 27.1685 48.8817 26.8505 49.1161 26.6161C49.3505 26.3817 49.6685 26.25 50 26.25C50.3315 26.25 50.6495 26.3817 50.8839 26.6161C51.1183 26.8505 51.25 27.1685 51.25 27.5V36.25C51.25 36.5815 51.1183 36.8995 50.8839 37.1339C50.6495 37.3683 50.3315 37.5 50 37.5C49.6685 37.5 49.3505 37.3683 49.1161 37.1339C48.8817 36.8995 48.75 36.5815 48.75 36.25V27.5ZM28.75 27.5C28.75 27.1685 28.8817 26.8505 29.1161 26.6161C29.3505 26.3817 29.6685 26.25 30 26.25C30.3315 26.25 30.6495 26.3817 30.8839 26.6161C31.1183 26.8505 31.25 27.1685 31.25 27.5V36.25C31.25 36.5815 31.1183 36.8995 30.8839 37.1339C30.6495 37.3683 30.3315 37.5 30 37.5C29.6685 37.5 29.3505 37.3683 29.1161 37.1339C28.8817 36.8995 28.75 36.5815 28.75 36.25V27.5ZM35 51.25C35 51.5815 34.8683 51.8995 34.6339 52.1339C34.3995 52.3683 34.0815 52.5 33.75 52.5H27.5C27.1685 52.5 26.8505 52.3683 26.6161 52.1339C26.3817 51.8995 26.25 51.5815 26.25 51.25V42.5C26.25 42.1685 26.3817 41.8505 26.6161 41.6161C26.8505 41.3817 27.1685 41.25 27.5 41.25H33.75C34.0815 41.25 34.3995 41.3817 34.6339 41.6161C34.8683 41.8505 35 42.1685 35 42.5V51.25ZM41.25 51.25C41.25 51.5815 41.1183 51.8995 40.8839 52.1339C40.6495 52.3683 40.3315 52.5 40 52.5C39.6685 52.5 39.3505 52.3683 39.1161 52.1339C38.8817 51.8995 38.75 51.5815 38.75 51.25V42.5C38.75 42.1685 38.8817 41.8505 39.1161 41.6161C39.3505 41.3817 39.6685 41.25 40 41.25C40.3315 41.25 40.6495 41.3817 40.8839 41.6161C41.1183 41.8505 41.25 42.1685 41.25 42.5V51.25ZM44.375 36.25C44.375 36.5815 44.2433 36.8995 44.0089 37.1339C43.7745 37.3683 43.4565 37.5 43.125 37.5H36.875C36.5435 37.5 36.2255 37.3683 35.9911 37.1339C35.7567 36.8995 35.625 36.5815 35.625 36.25V27.5C35.625 27.1685 35.7567 26.8505 35.9911 26.6161C36.2255 26.3817 36.5435 26.25 36.875 26.25H43.125C43.4565 26.25 43.7745 26.3817 44.0089 26.6161C44.2433 26.8505 44.375 27.1685 44.375 27.5V36.25ZM53.75 51.25C53.75 51.5815 53.6183 51.8995 53.3839 52.1339C53.1495 52.3683 52.8315 52.5 52.5 52.5H46.25C45.9185 52.5 45.6005 52.3683 45.3661 52.1339C45.1317 51.8995 45 51.5815 45 51.25V42.5C45 42.1685 45.1317 41.8505 45.3661 41.6161C45.6005 41.3817 45.9185 41.25 46.25 41.25H52.5C52.8315 41.25 53.1495 41.3817 53.3839 41.6161C53.6183 41.8505 53.75 42.1685 53.75 42.5V51.25Z" fill="#7C43FF"/>
<path d="M47.5 43.75H51.25V50H47.5V43.75Z" fill="#7C43FF"/>
</svg>
