<svg width="40" height="40" viewBox="0 0 40 40" fill="none" xmlns="http://www.w3.org/2000/svg">
<path d="M35.1953 17.5234V36.2109H4.80469V29.8359H14.6719V23.6797H24.5469V17.5234H35.1953Z" fill="#7C43FF"/>
<path d="M34.6101 17.5232V35.449C34.6101 35.6912 34.5945 35.9412 34.6101 36.1834V36.2146L35.1961 35.6287H6.04372C5.64919 35.6287 5.25075 35.6131 4.85622 35.6287H4.80544L5.39137 36.2146V29.8396L4.80544 30.4256H14.6726C14.989 30.4256 15.2586 30.156 15.2586 29.8396V23.6834L14.6726 24.2693H24.5476C24.864 24.2693 25.1336 23.9998 25.1336 23.6834V17.5271L24.5476 18.1131H35.1961C35.5007 18.1131 35.7976 17.8435 35.782 17.5271C35.7664 17.2107 35.5242 16.9412 35.1961 16.9412H24.5476C24.2312 16.9412 23.9617 17.2107 23.9617 17.5271V23.6834L24.5476 23.0974H14.6726C14.3562 23.0974 14.0867 23.367 14.0867 23.6834V29.8396L14.6726 29.2537H4.80544C4.48903 29.2537 4.2195 29.5232 4.2195 29.8396V36.2146C4.2195 36.531 4.48903 36.8006 4.80544 36.8006H33.9578C34.3523 36.8006 34.7507 36.8084 35.1453 36.8006H35.1961C35.5125 36.8006 35.782 36.531 35.782 36.2146V19.8279C35.782 19.0701 35.8054 18.3123 35.782 17.5545V17.5232C35.782 17.2185 35.5125 16.9216 35.1961 16.9373C34.8797 16.949 34.6101 17.1912 34.6101 17.5232ZM5.39528 22.2927C5.61012 22.156 5.82887 22.0193 6.04372 21.8865C6.63356 21.5154 7.2195 21.1482 7.80934 20.7771L10.4226 19.1365C11.4851 18.4685 12.5476 17.8045 13.6101 17.1365C14.7742 16.406 15.9382 15.6756 17.0984 14.9451C18.2742 14.2068 19.4461 13.4685 20.6218 12.7341C21.7156 12.0466 22.8132 11.3591 23.907 10.6716C24.8328 10.0896 25.7586 9.51149 26.6843 8.92946C27.3484 8.51149 28.0086 8.09743 28.6726 7.67946C28.989 7.48024 29.3093 7.28493 29.6218 7.0818C29.6375 7.07399 29.6492 7.06618 29.6648 7.05446C30.1843 6.73024 30.4343 5.99587 30.0867 5.4529C29.7507 4.93337 29.0398 4.68337 28.4851 5.03102C28.2703 5.16774 28.0515 5.30446 27.8367 5.43727C27.2468 5.80836 26.6609 6.17555 26.0711 6.54665L23.4578 8.18727C22.3953 8.85524 21.3328 9.5193 20.2703 10.1873C19.1062 10.9177 17.9422 11.6482 16.782 12.3787C15.6062 13.117 14.4343 13.8552 13.2586 14.5896C12.1648 15.2771 11.0672 15.9646 9.9734 16.6521C9.04762 17.2341 8.12184 17.8123 7.19606 18.3943C6.532 18.8123 5.87184 19.2263 5.20778 19.6443C4.89137 19.8435 4.57106 20.0388 4.25856 20.242C4.24294 20.2498 4.23122 20.2576 4.21559 20.2693C3.69606 20.5935 3.44606 21.3279 3.79372 21.8709C4.12575 22.3904 4.84059 22.6404 5.39528 22.2927Z" fill="#7C43FF"/>
<path d="M22.1547 6.09019C22.893 6.20737 23.6352 6.32847 24.3735 6.44566L27.936 7.01987C28.2094 7.06284 28.4789 7.10581 28.7524 7.15269L27.932 5.71128C27.8149 6.44956 27.6938 7.19175 27.5766 7.93003L27.0024 11.4925C26.9594 11.766 26.9164 12.0355 26.8695 12.3089C26.8188 12.6292 26.8188 12.9222 26.9867 13.2113C27.1274 13.4535 27.4086 13.6878 27.686 13.7503C27.9867 13.8167 28.3227 13.805 28.5883 13.6332C28.8305 13.4769 29.0805 13.2269 29.1274 12.9339C29.2445 12.1957 29.3656 11.4535 29.4828 10.7152L30.057 7.15269C30.1 6.87925 30.143 6.60972 30.1899 6.33628C30.2406 6.02769 30.2485 5.70737 30.0727 5.43394C29.9164 5.19175 29.6664 4.94175 29.3735 4.89487C28.6352 4.77769 27.893 4.65659 27.1547 4.53941L23.5922 3.96519C23.3188 3.92222 23.0492 3.87925 22.7758 3.83237C22.4555 3.78159 22.1625 3.78159 21.8735 3.94956C21.6313 4.09019 21.3969 4.37144 21.3344 4.64878C21.268 4.94956 21.2797 5.2855 21.4516 5.55112C21.6078 5.79331 21.8578 6.04331 22.1547 6.09019Z" fill="#7C43FF"/>
</svg>
