<svg width="40" height="40" viewBox="0 0 40 40" fill="none" xmlns="http://www.w3.org/2000/svg">
<path d="M24.318 34.0167C24.968 34.6667 25.818 35 26.668 35H12.4346C10.9346 35 9.55129 34.3167 8.63462 33.1C7.73462 31.9 7.45129 30.3833 7.86796 28.9333L8.76796 25.7833C9.73462 22.3833 12.8846 20 16.418 20H23.5846C26.9013 20 29.9013 22.1167 31.0513 25.1833C30.3013 24.9167 29.468 24.95 28.7346 25.25C28.318 25.4167 27.9513 25.6667 27.6346 25.9833L24.318 29.3167C23.018 30.6167 23.018 32.7167 24.318 34.0167ZM31.7846 32.4667C31.7513 32.5167 31.718 32.5833 31.668 32.6333V32.35L31.7846 32.4667Z" fill="#7C43FF"/>
<path d="M20.0026 18.3333C23.6845 18.3333 26.6693 15.3486 26.6693 11.6667C26.6693 7.98477 23.6845 5 20.0026 5C16.3207 5 13.3359 7.98477 13.3359 11.6667C13.3359 15.3486 16.3207 18.3333 20.0026 18.3333Z" fill="#7C43FF"/>
<path d="M31.668 32.3496V32.6329C31.718 32.5829 31.7513 32.5164 31.7846 32.4663L31.668 32.3496Z" fill="#7C43FF"/>
<path d="M34.5169 32.8498C34.1836 33.1665 33.7669 33.3331 33.3336 33.3331C32.9003 33.3331 32.4836 33.1665 32.1503 32.8498L31.7836 32.4665L31.6669 32.3498V34.9998C31.6669 35.9165 30.9169 36.6665 30.0003 36.6665C29.0836 36.6665 28.3336 35.9165 28.3336 34.9998V32.3498L27.8503 32.8498C27.2003 33.4998 26.1336 33.4998 25.4836 32.8498C24.8336 32.1998 24.8336 31.1331 25.4836 30.4831L28.8169 27.1498C28.9669 26.9998 29.1669 26.8831 29.3669 26.7998C29.7669 26.6331 30.2336 26.6331 30.6336 26.7998C30.8336 26.8831 31.0336 27 31.1836 27.1498L34.5169 30.4831C35.1669 31.1331 35.1669 32.1998 34.5169 32.8498Z" fill="#7C43FF"/>
</svg>
